<svg width="24" height="24" viewBox="0 0 24 24" fill="none" xmlns="http://www.w3.org/2000/svg">
<path fill-rule="evenodd" clip-rule="evenodd" d="M8.77494 11.3552C7.80751 10.477 7.20002 9.20946 7.20002 7.8C7.20002 5.14903 9.34906 3 12 3C14.651 3 16.8 5.14903 16.8 7.8C16.8 9.20946 16.1925 10.477 15.2251 11.3552C18.9406 12.6801 21.6 16.2295 21.6 20.4H19.8C19.8 16.0922 16.3078 12.6 12 12.6C7.6922 12.6 4.20002 16.0922 4.20002 20.4H2.40002C2.40002 16.2295 5.05943 12.6801 8.77494 11.3552ZM12 10.8C13.6569 10.8 15 9.45685 15 7.8C15 6.14315 13.6569 4.8 12 4.8C10.3432 4.8 9.00002 6.14315 9.00002 7.8C9.00002 9.45685 10.3432 10.8 12 10.8Z" fill="#304659"/>
</svg>
