<svg width="20" height="21" viewBox="0 0 20 21" fill="none" xmlns="http://www.w3.org/2000/svg">
<path fill-rule="evenodd" clip-rule="evenodd" d="M18 0H2C0.89543 0 0 0.92126 0 2.05769V18.5192C0 19.6557 0.89543 20.5769 2 20.5769H10V12.8303H7V9.92533H10V8.36536C10 5.41197 11.4897 4.11538 13.925 4.11538C15.0684 4.11538 15.6836 4.19915 15.9825 4.23985L16 4.24223V7.02036H14.339C13.3053 7.02036 13 7.57037 13 8.68394V9.92533H15.9741L15.5629 12.8303H13V20.5769H18C19.1046 20.5769 20 19.6557 20 18.5192V2.05769C20 0.92126 19.1046 0 18 0Z" fill="#304659"/>
</svg>
