<svg width="20" height="21" viewBox="0 0 20 21" fill="none" xmlns="http://www.w3.org/2000/svg">
<path fill-rule="evenodd" clip-rule="evenodd" d="M6 0H14C17.3137 0 20 2.76378 20 6.17307V14.4038C20 17.8131 17.3137 20.5769 14 20.5769H6C2.68629 20.5769 0 17.8131 0 14.4038V6.17307C0 2.76378 2.68629 0 6 0ZM16 3.08654C16.5 3.08654 17 3.60096 17 4.11538C17 4.62981 16.5 5.14423 16 5.14423C15.5 5.14423 15 4.62981 15 4.11538C15 3.60096 15.5 3.08654 16 3.08654ZM15 10.2885C15 7.45141 12.7575 5.14423 10 5.14423C7.2425 5.14423 5 7.45141 5 10.2885C5 13.1255 7.2425 15.4327 10 15.4327C12.7575 15.4327 15 13.1255 15 10.2885ZM10 7.20192C8.34315 7.20192 7 8.58381 7 10.2885C7 11.9931 8.34315 13.375 10 13.375C11.6569 13.375 13 11.9931 13 10.2885C13 8.58381 11.6569 7.20192 10 7.20192Z" fill="#304659"/>
</svg>
