<svg width="21" height="20" viewBox="0 0 21 20" fill="none" xmlns="http://www.w3.org/2000/svg">
<path fill-rule="evenodd" clip-rule="evenodd" d="M1.71436 10.0001C1.71436 5.40008 5.54578 1.66675 10.2772 1.66675C15.0172 1.66675 18.8572 5.40008 18.8572 10.0001C18.8572 14.6001 15.0172 18.3334 10.2772 18.3334C5.54578 18.3334 1.71436 14.6001 1.71436 10.0001ZM13.6886 6.66675H16.2172C15.3944 5.29175 14.0829 4.22508 12.5058 3.70008C13.0201 4.62508 13.4144 5.62508 13.6886 6.66675ZM10.2858 3.36675C10.9972 4.36675 11.5544 5.47508 11.9229 6.66675H8.64864C9.01721 5.47508 9.57435 4.36675 10.2858 3.36675ZM3.42864 10.0001C3.42864 10.5751 3.51436 11.1334 3.6515 11.6667H6.54864C6.48007 11.1167 6.42864 10.5667 6.42864 10.0001C6.42864 9.43341 6.48007 8.88341 6.54864 8.33341H3.6515C3.51436 8.86675 3.42864 9.42508 3.42864 10.0001ZM4.35435 13.3334H6.88293C7.15721 14.3751 7.5515 15.3751 8.06578 16.3001C6.48864 15.7751 5.17721 14.7167 4.35435 13.3334ZM4.35435 6.66675H6.88293C7.15721 5.62508 7.5515 4.62508 8.06578 3.70008C6.48864 4.22508 5.17721 5.28341 4.35435 6.66675ZM10.2858 16.6334C9.57435 15.6334 9.01721 14.5251 8.64864 13.3334H11.9229C11.5544 14.5251 10.9972 15.6334 10.2858 16.6334ZM8.14293 10.0001C8.14293 10.5667 8.20293 11.1167 8.28007 11.6667H12.2915C12.3686 11.1167 12.4286 10.5667 12.4286 10.0001C12.4286 9.43341 12.3686 8.87508 12.2915 8.33341H8.28007C8.20293 8.87508 8.14293 9.43341 8.14293 10.0001ZM12.5058 16.3001C13.0201 15.3751 13.4144 14.3751 13.6886 13.3334H16.2172C15.3944 14.7084 14.0829 15.7751 12.5058 16.3001ZM14.1429 10.0001C14.1429 10.5667 14.0915 11.1167 14.0229 11.6667H16.9201C17.0572 11.1334 17.1429 10.5751 17.1429 10.0001C17.1429 9.42508 17.0572 8.86675 16.9201 8.33341H14.0229C14.0915 8.88341 14.1429 9.43341 14.1429 10.0001Z" fill="#141416"/>
</svg>
