<svg width="20" height="21" viewBox="0 0 20 21" fill="none" xmlns="http://www.w3.org/2000/svg">
<path fill-rule="evenodd" clip-rule="evenodd" d="M18 0H2C0.89543 0 0 0.92126 0 2.05769V18.5192C0 19.6557 0.89543 20.5769 2 20.5769H18C19.1046 20.5769 20 19.6557 20 18.5192V2.05769C20 0.92126 19.1046 0 18 0ZM4 4.69569C4 5.58405 4.70032 6.30578 5.56637 6.30578C6.4297 6.30578 7.13184 5.58405 7.13184 4.69569C7.13184 3.80827 6.4297 3.08654 5.56637 3.08654C4.70123 3.08654 4 3.80733 4 4.69569ZM4.25044 16.4615H6.93695V7.57607H4.25044V16.4615ZM17 16.4615H14.3153V12.1405C14.3153 11.1098 14.2971 9.78433 12.9192 9.78433C11.5213 9.78433 11.3064 10.9067 11.3064 12.0656V16.4615H8.62172V7.57607H11.1989V8.79019H11.2354C11.5942 8.09186 12.4703 7.35515 13.7771 7.35515C16.4973 7.35515 17 9.19552 17 11.5882V16.4615Z" fill="#304659"/>
</svg>
