<svg width="20" height="21" viewBox="0 0 20 21" fill="none" xmlns="http://www.w3.org/2000/svg">
<path fill-rule="evenodd" clip-rule="evenodd" d="M18 0H2C0.89543 0 0 0.92126 0 2.05769V18.5192C0 19.6557 0.89543 20.5769 2 20.5769H18C19.1046 20.5769 20 19.6557 20 18.5192V2.05769C20 0.92126 19.1046 0 18 0ZM15.3502 6.41934C15.9312 6.35024 16.4847 6.19705 17 5.96941C16.615 6.542 16.1277 7.04496 15.5661 7.44828C15.5715 7.57094 15.5742 7.69414 15.5742 7.81787C15.5742 11.5935 12.686 15.9471 7.40283 15.9471C5.78051 15.9471 4.27126 15.4741 3 14.6637C3.22507 14.6905 3.45391 14.7039 3.68544 14.7039C5.03154 14.7039 6.26995 14.247 7.25261 13.4805C5.99588 13.4575 4.93516 12.631 4.56956 11.496C4.74455 11.5287 4.92493 11.5469 5.10961 11.5469C5.37183 11.5469 5.62598 11.5121 5.86666 11.4468C4.55232 11.1848 3.56267 10.03 3.56267 8.64541V8.60953C3.94981 8.82324 4.39295 8.95179 4.86354 8.96679C4.09303 8.45473 3.58636 7.58005 3.58636 6.58914C3.58636 6.06475 3.72797 5.57412 3.97458 5.15204C5.39175 6.88105 7.50783 8.01873 9.89474 8.13764C9.84628 7.92928 9.82043 7.71074 9.82043 7.48685C9.82043 5.90942 11.1062 4.62981 12.6925 4.62981C13.5184 4.62981 14.2647 4.97689 14.7886 5.53234C15.4434 5.40379 16.0583 5.16597 16.6129 4.8387C16.3986 5.50609 15.9436 6.06583 15.3502 6.41934Z" fill="#304659"/>
</svg>
